<?xml version="1.0" encoding="UTF-8"?>
<svg width="863px" height="182px" viewBox="0 0 863 182" version="1.1" xmlns="http://www.w3.org/2000/svg" xmlns:xlink="http://www.w3.org/1999/xlink">
    <title>中英文</title>
    <g id="页面-1" stroke="none" stroke-width="1" fill="none" fill-rule="evenodd">
        <g id="logo" transform="translate(-1006.000000, -154.000000)">
            <g id="编组-2" transform="translate(71.000000, 154.000000)">
                <g id="中英文" transform="translate(935.000000, 0.000000)">
                    <g id="编组">
                        <polygon id="矩形备份-10" fill="#000000" points="0 0 140 0 110 42 0 42"></polygon>
                        <path d="M0,182 L0,140 L98,140 C125.061953,140 147,118.061953 147,91 L146.999,90.9237563 L182.788594,57.8890008 C186.798819,68.1504618 189,79.3181741 189,91 C189,141.257912 148.257912,182 98,182 L0,182 Z" id="形状结合" fill="#000000"></path>
                        <polygon id="矩形备份-4" fill="#00CDCC" points="5.10008702e-16 56 98 56 50 126 2.83904844e-14 126"></polygon>
                        <polygon id="矩形备份-8" fill="#00CDCC" points="160 0 200 42 109 126 69 126"></polygon>
                    </g>
                    <g id="Evo-Chat" transform="translate(231.312000, 37.440000)" fill="#000000" fill-rule="nonzero">
                        <polygon id="路径" points="36.576 46.656 82.512 46.656 78.912 66.816 32.976 66.816 29.52 86.4 79.776 86.4 76.176 106.56 0 106.56 17.568 7.2 92.304 7.2 88.704 27.36 39.888 27.36"></polygon>
                        <polygon id="路径" points="136.944 106.56 108.288 106.56 91.872 29.664 120.672 29.664 126.72 84.672 152.208 29.664 180.576 29.664"></polygon>
                        <path d="M222.624,27.648 C228.864,27.648 234.336,28.488 239.04,30.168 C243.744,31.848 247.68,34.2 250.848,37.224 C254.016,40.248 256.392,43.848 257.976,48.024 C259.56,52.2 260.352,56.832 260.352,61.92 C260.352,68.064 259.344,73.968 257.328,79.632 C255.312,85.296 252.288,90.264 248.256,94.536 C244.224,98.808 239.232,102.216 233.28,104.76 C227.328,107.304 220.416,108.576 212.544,108.576 C206.304,108.576 200.832,107.736 196.128,106.056 C191.424,104.376 187.488,102.024 184.32,99 C181.152,95.976 178.776,92.376 177.192,88.2 C175.608,84.024 174.816,79.392 174.816,74.304 C174.816,68.064 175.824,62.136 177.84,56.52 C179.856,50.904 182.88,45.96 186.912,41.688 C190.944,37.416 195.936,34.008 201.888,31.464 C207.84,28.92 214.752,27.648 222.624,27.648 Z M214.416,91.008 C217.488,91.008 220.2,90.216 222.552,88.632 C224.904,87.048 226.848,84.912 228.384,82.224 C229.92,79.536 231.072,76.488 231.84,73.08 C232.608,69.672 232.992,66.144 232.992,62.496 C232.992,57.408 232.008,53.256 230.04,50.04 C228.072,46.824 224.976,45.216 220.752,45.216 C217.68,45.216 214.968,46.008 212.616,47.592 C210.264,49.176 208.32,51.312 206.784,54 C205.248,56.688 204.096,59.736 203.328,63.144 C202.56,66.552 202.176,70.08 202.176,73.728 C202.176,78.816 203.16,82.968 205.128,86.184 C207.096,89.4 210.192,91.008 214.416,91.008 Z" id="形状"></path>
                        <path d="M349.056,5.184 C356.16,5.184 362.304,6.072 367.488,7.848 C372.672,9.624 376.944,12.072 380.304,15.192 C383.664,18.312 386.088,21.984 387.576,26.208 C389.064,30.432 389.616,34.992 389.232,39.888 L389.088,41.328 L363.168,41.328 L363.168,39.888 C362.88,29.424 357.408,24.192 346.752,24.192 C342.912,24.192 339.264,25.08 335.808,26.856 C332.352,28.632 329.328,31.272 326.736,34.776 C324.144,38.28 322.08,42.624 320.544,47.808 C319.008,52.992 318.24,58.992 318.24,65.808 C318.24,70.128 318.696,73.8 319.608,76.824 C320.52,79.848 321.744,82.296 323.28,84.168 C324.816,86.04 326.64,87.408 328.752,88.272 C330.864,89.136 333.072,89.568 335.376,89.568 C340.464,89.568 344.856,88.08 348.552,85.104 C352.248,82.128 355.104,77.904 357.12,72.432 L357.696,70.992 L383.616,70.992 L383.184,72.432 C379.92,84.336 373.8,93.336 364.824,99.432 C355.848,105.528 345.12,108.576 332.64,108.576 C326.496,108.576 320.856,107.712 315.72,105.984 C310.584,104.256 306.192,101.664 302.544,98.208 C298.896,94.752 296.064,90.456 294.048,85.32 C292.032,80.184 291.024,74.256 291.024,67.536 C291.024,57.84 292.584,49.152 295.704,41.472 C298.824,33.792 303.048,27.264 308.376,21.888 C313.704,16.512 319.872,12.384 326.88,9.504 C333.888,6.624 341.28,5.184 349.056,5.184 Z" id="路径"></path>
                        <path d="M457.776,27.648 C465.648,27.648 471.48,29.496 475.272,33.192 C479.064,36.888 480.96,41.616 480.96,47.376 C480.96,49.392 480.816,51.552 480.528,53.856 C480.24,56.16 479.808,58.944 479.232,62.208 L471.312,106.56 L445.392,106.56 L452.304,67.968 C452.784,65.472 453.144,63.192 453.384,61.128 C453.624,59.064 453.744,57.36 453.744,56.016 C453.744,52.752 453,50.136 451.512,48.168 C450.024,46.2 447.36,45.216 443.52,45.216 C439.392,45.216 435.792,47.304 432.72,51.48 C429.648,55.656 427.296,62.112 425.664,70.848 L419.472,106.56 L393.552,106.56 L412.272,0 L438.192,0 L430.992,40.608 L439.632,32.112 C442.32,30.672 445.128,29.568 448.056,28.8 C450.984,28.032 454.224,27.648 457.776,27.648 Z" id="路径"></path>
                        <path d="M534.384,27.648 C540.048,27.648 544.8,28.2 548.64,29.304 C552.48,30.408 555.624,31.92 558.072,33.84 C560.52,35.76 562.272,38.016 563.328,40.608 C564.384,43.2 564.912,46.032 564.912,49.104 C564.912,51.312 564.744,53.688 564.408,56.232 C564.072,58.776 563.52,62.064 562.752,66.096 L559.008,87.12 C558.528,90 558.12,92.88 557.784,95.76 C557.448,98.64 557.184,102.24 556.992,106.56 L531.648,106.56 L531.936,95.184 L527.328,103.392 C524.64,105.12 521.664,106.416 518.4,107.28 C515.136,108.144 511.776,108.576 508.32,108.576 C505.344,108.576 502.536,108.144 499.896,107.28 C497.256,106.416 494.952,105.144 492.984,103.464 C491.016,101.784 489.48,99.648 488.376,97.056 C487.272,94.464 486.72,91.44 486.72,87.984 C486.72,83.664 487.824,79.656 490.032,75.96 C492.24,72.264 495.504,69.12 499.824,66.528 C504.144,63.936 509.496,61.992 515.88,60.696 C522.264,59.4 529.632,58.944 537.984,59.328 L538.128,58.752 C538.32,57.984 538.464,57.048 538.56,55.944 C538.656,54.84 538.704,53.616 538.704,52.272 C538.704,50.352 538.176,48.696 537.12,47.304 C536.064,45.912 534.144,45.216 531.36,45.216 C528.288,45.216 525.696,46.128 523.584,47.952 C521.472,49.776 520.032,52.368 519.264,55.728 L494.784,55.872 C495.648,51.36 497.28,47.352 499.68,43.848 C502.08,40.344 505.032,37.392 508.536,34.992 C512.04,32.592 516,30.768 520.416,29.52 C524.832,28.272 529.488,27.648 534.384,27.648 Z M521.136,91.008 C522.48,91.008 523.848,90.768 525.24,90.288 C526.632,89.808 527.952,89.064 529.2,88.056 C530.448,87.048 531.552,85.8 532.512,84.312 C533.472,82.824 534.144,81.072 534.528,79.056 L535.392,73.872 C528.768,73.104 523.464,73.656 519.48,75.528 C515.496,77.4 513.504,80.352 513.504,84.384 C513.504,86.688 514.2,88.368 515.592,89.424 C516.984,90.48 518.832,91.008 521.136,91.008 Z" id="形状"></path>
                        <path d="M606.528,74.736 C606.144,76.656 605.88,78.264 605.736,79.56 C605.592,80.856 605.52,82.176 605.52,83.52 C605.52,86.88 606.696,89.04 609.048,90 C611.4,90.96 615.168,91.104 620.352,90.432 L617.472,106.704 C611.616,107.952 605.616,108.576 599.472,108.576 C591.6,108.576 586.08,107.352 582.912,104.904 C579.744,102.456 578.16,98.736 578.16,93.744 C578.16,91.92 578.28,89.832 578.52,87.48 C578.76,85.128 579.216,82.128 579.888,78.48 L585.648,46.368 L573.984,46.368 L576.864,30.24 L588.384,30.24 L591.984,10.368 L617.904,10.368 L614.448,30.24 L631.152,30.24 L628.272,46.368 L611.568,46.368 L606.528,74.736 Z" id="路径"></path>
                    </g>
                </g>
            </g>
        </g>
    </g>
</svg>